<?xml version="1.0"?>
<svg version="1.1" xmlns="http://www.w3.org/2000/svg" width="730" height="200" style=""><path fill="#ffff03" d="M36.5,146l9.5,2l0,6l-27,0l0-6l8.5-2l0-54l-8.5-2l0-5.5l21-0.5l33,55.9l0-47.9l-8.5-2l0-5.5l26-0.5l0,6l-8.5,2l0,62l-12.5,0l-33-55.1l0,47.1z M130.36,100c15,0,23.5,10.5,23.5,26.5c0,17-10,28.5-25,28.5s-24-9-24-27c0-17,10.5-28,25.5-28z M129.86,108c-10,0-14.5,6.5-14.5,19.5c0,12,4,19.5,14,19.5s14-7,14-20c0-11-3.5-19-13.5-19z M201.22,101.5l0,7.5l-14.5,0l0,32.1c0,4.6,2.2,6.1,5,6.1c2.4,0,5.2-1.1,7.8-2.5l2.7,5.3c-4.5,3.3-9,5-14,5c-6,0-11.5-3.3-11.5-14.5l0-31.5l-10,0l0-6.5l10-1l0-12.6l10-2l0,14.6l14.5,0z M231.58,101l0.9,7.3c2.5-2.8,8.3-8.3,15.1-8.3c5,0,9,1.5,9,1.5l-0.5,14.5l-6.5,0l-1.5-7.5c-7.5,0-12.3,4.9-14.5,7.8l0,29.7l10,2.5l0,5.5l-28.5,0l0-5.5l8.5-2.5l0-37l-8.5-2l0-5.5z M313.44,129l-34.5,0c0,11,5.9,18,14.5,18c10,0,16.8-5.5,16.8-5.5l3.5,5.2s-9.3,8.3-21.3,8.3c-16,0-24-10.5-24-27c0-16,10-28,24.5-28s21,8.5,21,23.5c0,2.5-0.5,5.3-0.5,5.5z M279.34,121.5l24,0c0-7.5-2.9-13.7-10.9-13.7s-12.5,6.2-13.1,13.7z M337.8,146l0-54l-8.5-2l0-5.5l19-0.5l10.5,0c15,0,23,8,23,20.5c0,15.5-10,23.5-27,23.5l-6.5,0l0,18l8.5,2l0,6l-27.5,0l0-6z M348.3,120l6.5,0c11,0,16.5-5,16.5-14c0-8-4.5-14-13-14l-10,0l0,28z M399.16,116.5l-0.5-12.5s11-4,19.5-4c11.6,0,18.5,4,18.5,15.5l0,30.5l8,2l0,5.5l-15.5,0.5l-2.1-7c-3.4,3.4-9.4,8-16.4,8c-9.5,0-15-5.5-15-15c0-11.5,9-15.5,23-15.5l8,0l0-8c0-6-3.5-9-9.5-9s-10.1,1.5-10.1,1.5l-1.4,7.5l-6.5,0z M426.66,131l-7,0c-10,0-13.8,2.5-13.8,8.5c0,4.5,2.8,7.5,7.3,7.5c7.5,0,13.5-8,13.5-8l0-8z M475.02,101l0.9,7.3c2.5-2.8,8.3-8.3,15.1-8.3c5,0,9,1.5,9,1.5l-0.5,14.5l-6.5,0l-1.5-7.5c-7.5,0-12.3,4.9-14.5,7.8l0,29.7l10,2.5l0,5.5l-28.5,0l0-5.5l8.5-2.5l0-37l-8.5-2l0-5.5z M544.38,101.5l0,7.5l-14.5,0l0,32.1c0,4.6,2.2,6.1,5,6.1c2.4,0,5.2-1.1,7.8-2.5l2.7,5.3c-4.5,3.3-9,5-14,5c-6,0-11.5-3.3-11.5-14.5l0-31.5l-10,0l0-6.5l10-1l0-12.6l10-2l0,14.6l14.5,0z M562.24,116.5l-0.5-12.5s11-4,19.5-4c11.6,0,18.5,4,18.5,15.5l0,30.5l8,2l0,5.5l-15.5,0.5l-2.1-7c-3.4,3.4-9.4,8-16.4,8c-9.5,0-15-5.5-15-15c0-11.5,9-15.5,23-15.5l8,0l0-8c0-6-3.5-9-9.5-9s-10.1,1.5-10.1,1.5l-1.4,7.5l-6.5,0z M589.74,131l-7,0c-10,0-13.8,2.5-13.8,8.5c0,4.5,2.8,7.5,7.3,7.5c7.5,0,13.5-8,13.5-8l0-8z M673.6,107l-9.7,1.4s2.7,3.6,2.7,10.1c0,13.5-9,19.5-22,19.5c-4.5,0-7.5-0.9-7.5-0.9l-0.5,9.4l15.5,0c13,0,20,5,20,14.5c0,11-8.5,18-26,18c-14,0-24-3.5-24-14.5c0-9,10.5-12.5,10.5-12.5s-6-0.5-6-5.7c0-3.3,5.2-11.3,5.2-11.3s-7.7-3.5-7.7-15.5c0-13,9-19.5,22-19.5c6.5,0,10,1.9,10,1.9l17.5-0.4l0,5.5z M645.6,107c-8,0-11.5,4-11.5,12c0,7,3.5,12,11,12c8,0,11.5-3.5,11.5-12c0-7.5-3.5-12-11-12z M649.6,154l-11,0s-6.5,3-6.5,9c0,7,6,8.5,15.5,8.5c10,0,15-3,15-9.5s-5-8-13-8z M731.96,129l-34.5,0c0,11,5.9,18,14.5,18c10,0,16.8-5.5,16.8-5.5l3.5,5.2s-9.3,8.3-21.3,8.3c-16,0-24-10.5-24-27c0-16,10-28,24.5-28s21,8.5,21,23.5c0,2.5-0.5,5.3-0.5,5.5z M697.86,121.5l24,0c0-7.5-2.9-13.7-10.9-13.7s-12.5,6.2-13.1,13.7z"/><path fill="#" d=""/></svg>
